<svg width="24" height="31" viewBox="0 0 24 31" fill="none" xmlns="http://www.w3.org/2000/svg">
<path d="M10.8281 30.1641C2.27346 17.8594 0.750023 16.5703 0.750023 12C0.750023 5.78906 5.73049 0.75 12 0.75C18.211 0.75 23.25 5.78906 23.25 12C23.25 16.5703 21.668 17.8594 13.1133 30.1641C12.586 30.9844 11.3555 30.9844 10.8281 30.1641ZM12 16.6875C14.5781 16.6875 16.6875 14.6367 16.6875 12C16.6875 9.42188 14.5781 7.3125 12 7.3125C9.3633 7.3125 7.31252 9.42188 7.31252 12C7.31252 14.6367 9.3633 16.6875 12 16.6875Z" fill="white"/>
</svg>
