<svg width="22" height="16" viewBox="0 0 22 16" fill="none" xmlns="http://www.w3.org/2000/svg">
<path d="M11.2025 10.2798C11.2025 11.1537 10.63 11.7765 9.9168 11.7765H4.77394C4.06077 11.7765 3.48823 11.1537 3.48823 10.2798C3.48823 8.7229 3.86993 6.99522 5.45698 6.99522C5.94917 7.27647 6.61211 7.75861 7.34537 7.75861C8.07863 7.75861 8.74158 7.27647 9.23377 6.99522C10.8208 6.99522 11.2025 8.7229 11.2025 10.2798ZM9.62551 5.0566C9.62551 6.32223 8.60095 7.33674 7.34537 7.33674C6.08979 7.33674 5.06524 6.32223 5.06524 5.0566C5.06524 3.80103 6.08979 2.77647 7.34537 2.77647C8.60095 2.77647 9.62551 3.80103 9.62551 5.0566ZM18.9168 10.1693C18.9168 10.3501 18.7762 10.4908 18.5954 10.4908H12.8097C12.6289 10.4908 12.4882 10.3501 12.4882 10.1693V9.52647C12.4882 9.34567 12.6289 9.20504 12.8097 9.20504H18.5954C18.7762 9.20504 18.9168 9.34567 18.9168 9.52647V10.1693ZM18.9168 7.55772C18.9168 7.75861 18.7561 7.91933 18.5552 7.91933H12.8498C12.6489 7.91933 12.4882 7.75861 12.4882 7.55772V6.99522C12.4882 6.79433 12.6489 6.63361 12.8498 6.63361H18.5552C18.7561 6.63361 18.9168 6.79433 18.9168 6.99522V7.55772ZM18.9168 5.02647C18.9168 5.20728 18.7762 5.3479 18.5954 5.3479H12.8097C12.6289 5.3479 12.4882 5.20728 12.4882 5.02647V4.38361C12.4882 4.20281 12.6289 4.06219 12.8097 4.06219H18.5954C18.7762 4.06219 18.9168 4.20281 18.9168 4.38361V5.02647ZM21.4882 1.81219C21.4882 0.928257 20.765 0.205042 19.8811 0.205042H2.52394C1.64001 0.205042 0.9168 0.928257 0.9168 1.81219V14.0265C0.9168 14.9104 1.64001 15.6336 2.52394 15.6336H6.05966V14.6693C6.05966 14.4885 6.20028 14.3479 6.38109 14.3479H7.02394C7.20475 14.3479 7.34537 14.4885 7.34537 14.6693V15.6336H15.0597V14.6693C15.0597 14.4885 15.2003 14.3479 15.3811 14.3479H16.0239C16.2047 14.3479 16.3454 14.4885 16.3454 14.6693V15.6336H19.8811C20.765 15.6336 21.4882 14.9104 21.4882 14.0265V1.81219Z" fill="black"/>
</svg>
