<svg width="81" height="81" viewBox="0 0 81 81" fill="none" xmlns="http://www.w3.org/2000/svg">
<g id="Editing Prosess 1" clip-path="url(#clip0_0_78)">
<g id="Editing Prosess">
<path id="Vector" d="M78.7541 0H1.67538C1.23098 0 0.804776 0.176539 0.490535 0.490779C0.176294 0.80502 -0.000244141 1.23122 -0.000244141 1.67562L-0.000244141 78.7544C-0.000244141 79.1988 0.176294 79.625 0.490535 79.9392C0.804776 80.2535 1.23098 80.43 1.67538 80.43H78.7541C79.1985 80.43 79.6247 80.2535 79.939 79.9392C80.2532 79.625 80.4298 79.1988 80.4298 78.7544V1.67562C80.4298 1.23122 80.2532 0.80502 79.939 0.490779C79.6247 0.176539 79.1985 0 78.7541 0V0ZM13.4048 77.0788H3.35101V33.5125H13.4048V77.0788ZM13.4048 30.1612H3.35101V23.4587H13.4048V30.1612ZM77.0785 77.0788H16.756V23.4587H77.0785V77.0788ZM77.0785 20.1075H3.35101V13.405H77.0785V20.1075ZM77.0785 10.0538H3.35101V3.35125H77.0785V10.0538Z" fill="white"/>
<path id="Vector_2" d="M8.3779 8.37811C8.8223 8.37811 9.2485 8.20157 9.56274 7.88733C9.87698 7.57309 10.0535 7.14688 10.0535 6.70248C10.0535 6.25808 9.87698 5.83188 9.56274 5.51763C9.2485 5.20339 8.8223 5.02686 8.3779 5.02686C7.93349 5.02686 7.50729 5.20339 7.19305 5.51763C6.87881 5.83188 6.70227 6.25808 6.70227 6.70248C6.70227 7.14688 6.87881 7.57309 7.19305 7.88733C7.50729 8.20157 7.93349 8.37811 8.3779 8.37811Z" fill="white"/>
<path id="Vector_3" d="M15.0804 8.37811C15.5248 8.37811 15.951 8.20157 16.2652 7.88733C16.5795 7.57309 16.756 7.14688 16.756 6.70248C16.756 6.25808 16.5795 5.83188 16.2652 5.51763C15.951 5.20339 15.5248 5.02686 15.0804 5.02686C14.636 5.02686 14.2098 5.20339 13.8955 5.51763C13.5813 5.83188 13.4048 6.25808 13.4048 6.70248C13.4048 7.14688 13.5813 7.57309 13.8955 7.88733C14.2098 8.20157 14.636 8.37811 15.0804 8.37811Z" fill="white"/>
<path id="Vector_4" d="M21.7829 8.37811C22.2273 8.37811 22.6535 8.20157 22.9677 7.88733C23.282 7.57309 23.4585 7.14688 23.4585 6.70248C23.4585 6.25808 23.282 5.83188 22.9677 5.51763C22.6535 5.20339 22.2273 5.02686 21.7829 5.02686C21.3385 5.02686 20.9123 5.20339 20.598 5.51763C20.2838 5.83188 20.1073 6.25808 20.1073 6.70248C20.1073 7.14688 20.2838 7.57309 20.598 7.88733C20.9123 8.20157 21.3385 8.37811 21.7829 8.37811Z" fill="white"/>
<path id="Vector_5" d="M46.6828 37.6848C46.5344 37.4348 46.3235 37.2276 46.0709 37.0838C45.8182 36.9399 45.5325 36.8643 45.2417 36.8643C44.951 36.8643 44.6652 36.9399 44.4126 37.0838C44.1599 37.2276 43.949 37.4348 43.8007 37.6848L33.7469 54.4411C32.9594 55.7481 33.7469 56.234 38.4052 61.9981H36.8636C36.4192 61.9981 35.993 62.1747 35.6787 62.4889C35.3645 62.8032 35.188 63.2294 35.188 63.6738V70.3763C35.188 70.8207 35.3645 71.2469 35.6787 71.5611C35.993 71.8753 36.4192 72.0519 36.8636 72.0519H53.6198C54.0642 72.0519 54.4905 71.8753 54.8047 71.5611C55.1189 71.2469 55.2955 70.8207 55.2955 70.3763V63.6738C55.2955 63.2294 55.1189 62.8032 54.8047 62.4889C54.4905 62.1747 54.0642 61.9981 53.6198 61.9981H52.0783C56.77 56.1334 57.5241 55.7648 56.7365 54.4411L46.6828 37.6848ZM51.9442 68.7006H38.5392V65.3494H51.9442V68.7006ZM47.7887 61.9981H42.7618L37.2825 55.1616L43.5661 44.5884V53.62C43.5661 54.0644 43.7426 54.4906 44.0569 54.8049C44.3711 55.1191 44.7973 55.2956 45.2417 55.2956C45.6861 55.2956 46.1123 55.1191 46.4266 54.8049C46.7408 54.4906 46.9173 54.0644 46.9173 53.62V44.5884L53.268 55.1616L47.7887 61.9981Z" fill="white"/>
<path id="Vector_6" d="M28.5692 45.2418C28.3491 45.2363 28.1301 45.2742 27.9247 45.3534C27.7193 45.4325 27.5315 45.5513 27.372 45.703C27.2126 45.8547 27.0845 46.0363 26.9952 46.2375C26.9059 46.4387 26.8571 46.6555 26.8516 46.8756C26.8461 47.0956 26.884 47.3146 26.9632 47.52C27.0423 47.7254 27.1611 47.9132 27.3128 48.0727C27.4645 48.2322 27.6461 48.3602 27.8473 48.4495C28.0485 48.5388 28.2653 48.5876 28.4854 48.5931H31.8366C32.281 48.6087 32.7134 48.447 33.0387 48.1438C33.3639 47.8405 33.5553 47.4205 33.5709 46.9761C33.5865 46.5317 33.4248 46.0993 33.1216 45.7741C32.8183 45.4489 32.3983 45.2574 31.9539 45.2418C32.3827 42.0215 33.9665 39.0665 36.4106 36.9263C38.8547 34.7861 41.9929 33.6063 45.2416 33.6063C48.4904 33.6063 51.6286 34.7861 54.0727 36.9263C56.5168 39.0665 58.1005 42.0215 58.5293 45.2418C58.3093 45.2495 58.0929 45.3005 57.8926 45.3918C57.6922 45.4832 57.5118 45.6131 57.3617 45.7741C57.0584 46.0993 56.8968 46.5317 56.9124 46.9761C56.9279 47.4205 57.1194 47.8405 57.4446 48.1438C57.7698 48.447 58.2022 48.6087 58.6466 48.5931H61.9979C62.4423 48.5931 62.8685 48.4166 63.1827 48.1023C63.497 47.7881 63.6735 47.3619 63.6735 46.9175C63.6735 46.4731 63.497 46.0469 63.1827 45.7326C62.8685 45.4184 62.4423 45.2418 61.9979 45.2418C61.7559 42.9286 61.035 40.6911 59.8811 38.6718C58.7271 36.6524 57.1654 34.8953 55.2954 33.5125H60.3223C60.3223 33.9569 60.4988 34.3831 60.813 34.6973C61.1273 35.0116 61.5535 35.1881 61.9979 35.1881C62.4423 35.1881 62.8685 35.0116 63.1827 34.6973C63.497 34.3831 63.6735 33.9569 63.6735 33.5125V30.1612C63.6735 29.7168 63.497 29.2906 63.1827 28.9764C62.8685 28.6621 62.4423 28.4856 61.9979 28.4856C61.5535 28.4856 61.1273 28.6621 60.813 28.9764C60.4988 29.2906 60.3223 29.7168 60.3223 30.1612H30.161C30.161 29.7168 29.9845 29.2906 29.6702 28.9764C29.356 28.6621 28.9298 28.4856 28.4854 28.4856C28.041 28.4856 27.6148 28.6621 27.3005 28.9764C26.9863 29.2906 26.8098 29.7168 26.8098 30.1612V33.5125C26.8098 33.9569 26.9863 34.3831 27.3005 34.6973C27.6148 35.0116 28.041 35.1881 28.4854 35.1881C28.9298 35.1881 29.356 35.0116 29.6702 34.6973C29.9845 34.3831 30.161 33.9569 30.161 33.5125H35.1879C33.3333 34.9034 31.7875 36.664 30.6482 38.6829C29.5089 40.7019 28.801 42.9353 28.5692 45.2418Z" fill="#FCCA2E"/>
<path id="Vector_7" d="M8.3779 41.8907C8.8223 41.8907 9.2485 41.7141 9.56274 41.3999C9.87698 41.0857 10.0535 40.6595 10.0535 40.2151C10.0535 39.7707 9.87698 39.3444 9.56274 39.0302C9.2485 38.716 8.8223 38.5394 8.3779 38.5394C7.93349 38.5394 7.50729 38.716 7.19305 39.0302C6.87881 39.3444 6.70227 39.7707 6.70227 40.2151C6.70227 40.6595 6.87881 41.0857 7.19305 41.3999C7.50729 41.7141 7.93349 41.8907 8.3779 41.8907Z" fill="white"/>
<path id="Vector_8" d="M8.3779 50.2687C8.8223 50.2687 9.2485 50.0922 9.56274 49.778C9.87698 49.4637 10.0535 49.0375 10.0535 48.5931C10.0535 48.1487 9.87698 47.7225 9.56274 47.4083C9.2485 47.094 8.8223 46.9175 8.3779 46.9175C7.93349 46.9175 7.50729 47.094 7.19305 47.4083C6.87881 47.7225 6.70227 48.1487 6.70227 48.5931C6.70227 49.0375 6.87881 49.4637 7.19305 49.778C7.50729 50.0922 7.93349 50.2687 8.3779 50.2687Z" fill="white"/>
<path id="Vector_9" d="M8.3779 58.6469C8.8223 58.6469 9.2485 58.4704 9.56274 58.1561C9.87698 57.8419 10.0535 57.4157 10.0535 56.9713C10.0535 56.5269 9.87698 56.1007 9.56274 55.7864C9.2485 55.4722 8.8223 55.2957 8.3779 55.2957C7.93349 55.2957 7.50729 55.4722 7.19305 55.7864C6.87881 56.1007 6.70227 56.5269 6.70227 56.9713C6.70227 57.4157 6.87881 57.8419 7.19305 58.1561C7.50729 58.4704 7.93349 58.6469 8.3779 58.6469Z" fill="white"/>
<path id="Vector_10" d="M8.3779 67.0249C8.8223 67.0249 9.2485 66.8484 9.56274 66.5342C9.87698 66.2199 10.0535 65.7937 10.0535 65.3493C10.0535 64.9049 9.87698 64.4787 9.56274 64.1645C9.2485 63.8502 8.8223 63.6737 8.3779 63.6737C7.93349 63.6737 7.50729 63.8502 7.19305 64.1645C6.87881 64.4787 6.70227 64.9049 6.70227 65.3493C6.70227 65.7937 6.87881 66.2199 7.19305 66.5342C7.50729 66.8484 7.93349 67.0249 8.3779 67.0249Z" fill="white"/>
</g>
</g>
<defs>
<clipPath id="clip0_0_78">
<rect width="80.43" height="80.43" fill="white" transform="translate(-0.000244141)"/>
</clipPath>
</defs>
</svg>
