<svg width="19" height="20" viewBox="0 0 19 20" fill="none" xmlns="http://www.w3.org/2000/svg">
<path d="M9.5 5.4082C12.084 5.4082 14.2168 7.54102 14.2168 10.125C14.2168 12.75 12.084 14.8418 9.5 14.8418C6.875 14.8418 4.7832 12.75 4.7832 10.125C4.7832 7.54102 6.875 5.4082 9.5 5.4082ZM9.5 13.2012C11.1816 13.2012 12.5352 11.8477 12.5352 10.125C12.5352 8.44336 11.1816 7.08984 9.5 7.08984C7.77734 7.08984 6.42383 8.44336 6.42383 10.125C6.42383 11.8477 7.81836 13.2012 9.5 13.2012ZM15.4883 5.24414C15.4883 5.85938 14.9961 6.35156 14.3809 6.35156C13.7656 6.35156 13.2734 5.85938 13.2734 5.24414C13.2734 4.62891 13.7656 4.13672 14.3809 4.13672C14.9961 4.13672 15.4883 4.62891 15.4883 5.24414ZM18.6055 6.35156C18.6875 7.86914 18.6875 12.4219 18.6055 13.9395C18.5234 15.416 18.1953 16.6875 17.1289 17.7949C16.0625 18.8613 14.75 19.1895 13.2734 19.2715C11.7559 19.3535 7.20312 19.3535 5.68555 19.2715C4.20898 19.1895 2.9375 18.8613 1.83008 17.7949C0.763672 16.6875 0.435547 15.416 0.353516 13.9395C0.271484 12.4219 0.271484 7.86914 0.353516 6.35156C0.435547 4.875 0.763672 3.5625 1.83008 2.49609C2.9375 1.42969 4.20898 1.10156 5.68555 1.01953C7.20312 0.9375 11.7559 0.9375 13.2734 1.01953C14.75 1.10156 16.0625 1.42969 17.1289 2.49609C18.1953 3.5625 18.5234 4.875 18.6055 6.35156ZM16.6367 15.5391C17.1289 14.3496 17.0059 11.4785 17.0059 10.125C17.0059 8.8125 17.1289 5.94141 16.6367 4.71094C16.3086 3.93164 15.6934 3.27539 14.9141 2.98828C13.6836 2.49609 10.8125 2.61914 9.5 2.61914C8.14648 2.61914 5.27539 2.49609 4.08594 2.98828C3.26562 3.31641 2.65039 3.93164 2.32227 4.71094C1.83008 5.94141 1.95312 8.8125 1.95312 10.125C1.95312 11.4785 1.83008 14.3496 2.32227 15.5391C2.65039 16.3594 3.26562 16.9746 4.08594 17.3027C5.27539 17.7949 8.14648 17.6719 9.5 17.6719C10.8125 17.6719 13.6836 17.7949 14.9141 17.3027C15.6934 16.9746 16.3496 16.3594 16.6367 15.5391Z" fill="white"/>
</svg>
