<svg width="21" height="21" viewBox="0 0 21 21" fill="none" xmlns="http://www.w3.org/2000/svg">
<path d="M13.9252 10.7088C13.9252 12.5972 12.385 14.1374 10.4967 14.1374C8.60826 14.1374 7.06808 12.5972 7.06808 10.7088C7.06808 8.82045 8.60826 7.28027 10.4967 7.28027C12.385 7.28027 13.9252 8.82045 13.9252 10.7088ZM15.7734 10.7088C15.7734 7.7892 13.4163 5.43206 10.4967 5.43206C7.57701 5.43206 5.21987 7.7892 5.21987 10.7088C5.21987 13.6285 7.57701 15.9856 10.4967 15.9856C13.4163 15.9856 15.7734 13.6285 15.7734 10.7088ZM17.2199 5.21777C17.2199 4.53474 16.6708 3.98563 15.9877 3.98563C15.3047 3.98563 14.7556 4.53474 14.7556 5.21777C14.7556 5.90081 15.3047 6.44992 15.9877 6.44992C16.6708 6.44992 17.2199 5.90081 17.2199 5.21777ZM10.4967 2.27134C11.9967 2.27134 15.2109 2.15081 16.5636 2.68652C17.0324 2.87402 17.3806 3.1017 17.7422 3.46331C18.1038 3.82492 18.3315 4.17313 18.519 4.64188C19.0547 5.99456 18.9342 9.20884 18.9342 10.7088C18.9342 12.2088 19.0547 15.4231 18.519 16.7758C18.3315 17.2446 18.1038 17.5928 17.7422 17.9544C17.3806 18.316 17.0324 18.5437 16.5636 18.7312C15.2109 19.2669 11.9967 19.1463 10.4967 19.1463C8.99665 19.1463 5.78237 19.2669 4.42969 18.7312C3.96094 18.5437 3.61272 18.316 3.25112 17.9544C2.88951 17.5928 2.66183 17.2446 2.47433 16.7758C1.93862 15.4231 2.05915 12.2088 2.05915 10.7088C2.05915 9.20884 1.93862 5.99456 2.47433 4.64188C2.66183 4.17313 2.88951 3.82492 3.25112 3.46331C3.61272 3.1017 3.96094 2.87402 4.42969 2.68652C5.78237 2.15081 8.99665 2.27134 10.4967 2.27134ZM20.7824 10.7088C20.7824 9.2892 20.7958 7.88295 20.7154 6.46331C20.635 4.81599 20.26 3.35617 19.0547 2.15081C17.8493 0.945451 16.3895 0.570451 14.7422 0.490095C13.3225 0.409737 11.9163 0.42313 10.4967 0.42313C9.07701 0.42313 7.67076 0.409737 6.25112 0.490095C4.60379 0.570451 3.14397 0.945451 1.93862 2.15081C0.733259 3.35617 0.358259 4.81599 0.277902 6.46331C0.197545 7.88295 0.210938 9.2892 0.210938 10.7088C0.210938 12.1285 0.197545 13.5347 0.277902 14.9544C0.358259 16.6017 0.733259 18.0615 1.93862 19.2669C3.14397 20.4722 4.60379 20.8472 6.25112 20.9276C7.67076 21.008 9.07701 20.9946 10.4967 20.9946C11.9163 20.9946 13.3225 21.008 14.7422 20.9276C16.3895 20.8472 17.8493 20.4722 19.0547 19.2669C20.26 18.0615 20.635 16.6017 20.7154 14.9544C20.7958 13.5347 20.7824 12.1285 20.7824 10.7088Z" fill="#FCCA2E"/>
</svg>
