<svg width="81" height="82" viewBox="0 0 81 82" fill="none" xmlns="http://www.w3.org/2000/svg">
<g id="User Experience 1" clip-path="url(#clip0_0_40)">
<g id="User Experience">
<path id="Vector" d="M65.5093 56.5042V9.28324C65.5093 7.06114 64.6265 4.93004 63.0553 3.35878C61.484 1.78751 59.3529 0.904785 57.1308 0.904785L23.617 0.904785C21.3949 0.904785 19.2638 1.78751 17.6925 3.35878C16.1213 4.93004 15.2385 7.06114 15.2385 9.28324V72.9595C15.2385 74.0598 15.4552 75.1493 15.8763 76.1658C16.2974 77.1823 16.9145 78.106 17.6925 78.884C18.4705 79.662 19.3942 80.2791 20.4107 80.7002C21.4272 81.1212 22.5167 81.338 23.617 81.338C45.2166 81.338 44.295 81.5893 44.9988 80.7515C46.5069 78.9752 44.6134 78.2212 34.6933 69.7422C34.504 69.5814 34.3579 69.3758 34.2682 69.1442C34.1786 68.9125 34.1482 68.6622 34.1798 68.4158C34.2114 68.1694 34.3041 67.9349 34.4493 67.7334C34.5946 67.532 34.7879 67.37 35.0117 67.2622C35.7657 66.8767 35.4809 66.9438 43.1891 69.5243C43.4415 69.6096 43.7106 69.6334 43.9741 69.5939C44.2376 69.5543 44.4879 69.4525 44.7041 69.2968C44.9204 69.1412 45.0964 68.9362 45.2176 68.6989C45.3388 68.4616 45.4016 68.1989 45.401 67.9324V46.1484C45.401 45.704 45.5775 45.2778 45.8918 44.9636C46.206 44.6493 46.6322 44.4728 47.0767 44.4728C47.5211 44.4728 47.9473 44.6493 48.2615 44.9636C48.5758 45.2778 48.7523 45.704 48.7523 46.1484V64.5811C48.7523 65.0255 48.9289 65.4517 49.2431 65.7659C49.5574 66.0802 49.9836 66.2567 50.428 66.2567C50.8725 66.2567 51.2987 66.0802 51.6129 65.7659C51.9272 65.4517 52.1037 65.0255 52.1037 64.5811V57.8783C52.1037 57.4339 52.2803 57.0076 52.5945 56.6934C52.9088 56.3791 53.335 56.2026 53.7794 56.2026C54.2238 56.2026 54.6501 56.3791 54.9643 56.6934C55.2786 57.0076 55.4551 57.4339 55.4551 57.8783V64.5811C55.4551 65.0255 55.6317 65.4517 55.9459 65.7659C56.2602 66.0802 56.6864 66.2567 57.1308 66.2567C57.5752 66.2567 58.0014 66.0802 58.3157 65.7659C58.6299 65.4517 58.8065 65.0255 58.8065 64.5811V59.554C58.8065 59.1096 58.983 58.6833 59.2973 58.3691C59.6115 58.0548 60.0378 57.8783 60.4822 57.8783C60.9266 57.8783 61.3528 58.0548 61.6671 58.3691C61.9813 58.6833 62.1579 59.1096 62.1579 59.554V64.5811C62.1579 65.0255 62.3344 65.4517 62.6487 65.7659C62.9629 66.0802 63.3891 66.2567 63.8336 66.2567C64.278 66.2567 64.7042 66.0802 65.0185 65.7659C65.3327 65.4517 65.5093 65.0255 65.5093 64.5811V61.2297C65.5093 60.7852 65.6858 60.359 66 60.0448C66.3143 59.7305 66.7405 59.554 67.1849 59.554C67.6294 59.554 68.0556 59.7305 68.3698 60.0448C68.6841 60.359 68.8606 60.7852 68.8606 61.2297V79.6623C68.8606 80.1067 69.0372 80.5329 69.3514 80.8472C69.6657 81.1614 70.0919 81.338 70.5363 81.338C70.9807 81.338 71.407 81.1614 71.7212 80.8472C72.0355 80.5329 72.212 80.1067 72.212 79.6623V61.2297C72.2098 60.4266 72.0152 59.6358 71.6445 58.9234C71.2738 58.2111 70.7379 57.5978 70.0816 57.1351C69.4252 56.6724 68.6676 56.3737 67.8721 56.2639C67.0766 56.1541 66.2664 56.2365 65.5093 56.5042ZM18.5899 9.28324C18.5899 7.94998 19.1195 6.67132 20.0623 5.72856C21.0051 4.7858 22.2837 4.25617 23.617 4.25617H57.1308C58.4641 4.25617 59.7427 4.7858 60.6855 5.72856C61.6282 6.67132 62.1579 7.94998 62.1579 9.28324V10.9589H18.5899V9.28324ZM39.1841 77.9866H23.617C22.2837 77.9866 21.0051 77.4569 20.0623 76.5142C19.1195 75.5714 18.5899 74.2928 18.5899 72.9595V71.2838H31.6435C32.1798 72.1049 31.8614 71.7363 39.1841 77.9866ZM58.0189 55.1972C57.4093 54.2379 56.4925 53.5135 55.4182 53.1422C54.344 52.771 53.1756 52.7747 52.1037 53.1528V46.1484C52.1037 44.8152 51.5741 43.5365 50.6313 42.5938C49.6886 41.651 48.4099 41.1214 47.0767 41.1214C45.7434 41.1214 44.4647 41.651 43.522 42.5938C42.5792 43.5365 42.0496 44.8152 42.0496 46.1484H26.9684C26.5239 46.1484 26.0977 46.325 25.7835 46.6392C25.4692 46.9535 25.2927 47.3797 25.2927 47.8241C25.2927 48.2686 25.4692 48.6948 25.7835 49.009C26.0977 49.3233 26.5239 49.4998 26.9684 49.4998H42.0496V65.6032L37.2236 63.9275C36.5432 63.7014 35.8211 63.6291 35.1093 63.716C34.3976 63.8029 33.7141 64.0467 33.108 64.4299C32.502 64.813 31.9886 65.326 31.605 65.9317C31.2213 66.5374 30.9769 67.2208 30.8895 67.9324H18.5899V14.3103H62.1579V54.8285C61.4839 54.579 60.7627 54.4826 60.0468 54.5464C59.3309 54.6101 58.6382 54.8324 58.0189 55.1972Z" fill="white"/>
<path id="Vector_2" d="M35.3467 21.0131V29.3915C35.3467 30.2804 34.9937 31.1328 34.3652 31.7613C33.7366 32.3898 32.8842 32.7429 31.9954 32.7429C31.1065 32.7429 30.2541 32.3898 29.6256 31.7613C28.9971 31.1328 28.644 30.2804 28.644 29.3915V21.0131C28.644 20.5687 28.4674 20.1425 28.1532 19.8282C27.8389 19.5139 27.4127 19.3374 26.9683 19.3374C26.5239 19.3374 26.0977 19.5139 25.7834 19.8282C25.4691 20.1425 25.2926 20.5687 25.2926 21.0131V29.3915C25.2926 31.1692 25.9988 32.8741 27.2558 34.1311C28.5128 35.3881 30.2177 36.0943 31.9954 36.0943C33.7731 36.0943 35.4779 35.3881 36.7349 34.1311C37.9919 32.8741 38.6981 31.1692 38.6981 29.3915V21.0131C38.6981 20.5687 38.5216 20.1425 38.2073 19.8282C37.8931 19.5139 37.4669 19.3374 37.0224 19.3374C36.578 19.3374 36.1518 19.5139 35.8375 19.8282C35.5233 20.1425 35.3467 20.5687 35.3467 21.0131Z" fill="#FCCA2E"/>
<path id="Vector_3" d="M52.439 20.0077L48.7525 24.9175L45.066 20.0077C44.7993 19.6521 44.4024 19.4171 43.9624 19.3543C43.5225 19.2914 43.0756 19.4059 42.72 19.6725C42.3645 19.9392 42.1294 20.3362 42.0666 20.7761C42.0037 21.2161 42.1182 21.663 42.3849 22.0185L46.6579 27.7159L42.3849 33.4132C42.1182 33.7688 42.0037 34.2157 42.0666 34.6556C42.1294 35.0956 42.3645 35.4925 42.72 35.7592C43.0756 36.0258 43.5225 36.1403 43.9624 36.0775C44.4024 36.0146 44.7993 35.7796 45.066 35.424L48.7525 30.5143L52.439 35.424C52.7057 35.7796 53.1027 36.0146 53.5426 36.0775C53.9826 36.1403 54.4295 36.0258 54.785 35.7592C55.1405 35.4925 55.3756 35.0956 55.4384 34.6556C55.5013 34.2157 55.3868 33.7688 55.1201 33.4132L50.8471 27.7159L55.1201 22.0185C55.3868 21.663 55.5013 21.2161 55.4384 20.7761C55.3756 20.3362 55.1405 19.9392 54.785 19.6725C54.4295 19.4059 53.9826 19.2914 53.5426 19.3543C53.1027 19.4171 52.7057 19.6521 52.439 20.0077Z" fill="#FCCA2E"/>
<path id="Vector_4" d="M37.0224 39.4457H26.9683C26.5239 39.4457 26.0977 39.6222 25.7834 39.9365C25.4691 40.2507 25.2926 40.6769 25.2926 41.1214C25.2926 41.5658 25.4691 41.992 25.7834 42.3063C26.0977 42.6205 26.5239 42.7971 26.9683 42.7971H37.0224C37.4669 42.7971 37.8931 42.6205 38.2073 42.3063C38.5216 41.992 38.6981 41.5658 38.6981 41.1214C38.6981 40.6769 38.5216 40.2507 38.2073 39.9365C37.8931 39.6222 37.4669 39.4457 37.0224 39.4457Z" fill="white"/>
<path id="Vector_5" d="M26.9683 56.2026H33.6711C34.1155 56.2026 34.5417 56.026 34.856 55.7118C35.1702 55.3975 35.3467 54.9713 35.3467 54.5269C35.3467 54.0825 35.1702 53.6562 34.856 53.342C34.5417 53.0277 34.1155 52.8512 33.6711 52.8512H26.9683C26.5239 52.8512 26.0977 53.0277 25.7834 53.342C25.4691 53.6562 25.2926 54.0825 25.2926 54.5269C25.2926 54.9713 25.4691 55.3975 25.7834 55.7118C26.0977 56.026 26.5239 56.2026 26.9683 56.2026Z" fill="white"/>
</g>
</g>
<defs>
<clipPath id="clip0_0_40">
<rect width="80.4332" height="80.4332" fill="white" transform="translate(0.157166 0.904785)"/>
</clipPath>
</defs>
</svg>
