<svg width="14" height="22" viewBox="0 0 14 22" fill="none" xmlns="http://www.w3.org/2000/svg">
<path d="M11.5938 0.625C12.6602 0.625 13.5625 1.52734 13.5625 2.59375V19.6562C13.5625 20.7637 12.6602 21.625 11.5938 21.625H2.40625C1.29883 21.625 0.4375 20.7637 0.4375 19.6562V2.59375C0.4375 1.52734 1.29883 0.625 2.40625 0.625H11.5938ZM7 20.3125C7.69727 20.3125 8.3125 19.7383 8.3125 19C8.3125 18.3027 7.69727 17.6875 7 17.6875C6.26172 17.6875 5.6875 18.3027 5.6875 19C5.6875 19.7383 6.26172 20.3125 7 20.3125ZM11.5938 15.8828V3.08594C11.5938 2.83984 11.3477 2.59375 11.1016 2.59375H2.89844C2.61133 2.59375 2.40625 2.83984 2.40625 3.08594V15.8828C2.40625 16.1699 2.61133 16.375 2.89844 16.375H11.1016C11.3477 16.375 11.5938 16.1699 11.5938 15.8828Z" fill="white"/>
</svg>
