<svg width="21" height="18" viewBox="0 0 21 18" fill="none" xmlns="http://www.w3.org/2000/svg">
<path d="M18.8262 4.85938C18.8262 5.06445 18.8262 5.22852 18.8262 5.43359C18.8262 11.1348 14.5195 17.6562 6.60352 17.6562C4.14258 17.6562 1.88672 16.959 0 15.7285C0.328125 15.7695 0.65625 15.8105 1.02539 15.8105C3.03516 15.8105 4.88086 15.1133 6.35742 13.9648C4.4707 13.9238 2.87109 12.6934 2.33789 10.9707C2.625 11.0117 2.87109 11.0527 3.1582 11.0527C3.52734 11.0527 3.9375 10.9707 4.26562 10.8887C2.29688 10.4785 0.820312 8.75586 0.820312 6.66406V6.62305C1.39453 6.95117 2.0918 7.11523 2.78906 7.15625C1.59961 6.37695 0.861328 5.06445 0.861328 3.58789C0.861328 2.76758 1.06641 2.0293 1.43555 1.41406C3.56836 3.99805 6.76758 5.7207 10.3359 5.92578C10.2539 5.59766 10.2129 5.26953 10.2129 4.94141C10.2129 2.5625 12.1406 0.634766 14.5195 0.634766C15.75 0.634766 16.8574 1.12695 17.6777 1.98828C18.6211 1.7832 19.5645 1.41406 20.3848 0.921875C20.0566 1.94727 19.4004 2.76758 18.498 3.30078C19.3594 3.21875 20.2207 2.97266 20.959 2.64453C20.3848 3.50586 19.6465 4.24414 18.8262 4.85938Z" fill="white"/>
</svg>
