<svg width="23" height="18" viewBox="0 0 23 18" fill="none" xmlns="http://www.w3.org/2000/svg">
<path d="M22.0519 2.17313C21.2751 2.50795 20.4314 2.74902 19.5608 2.84277C20.4581 2.30706 21.1412 1.46331 21.4626 0.458845C20.6323 0.95438 19.6948 1.31599 18.7171 1.50349C17.9269 0.659737 16.8019 0.137416 15.5564 0.137416C13.159 0.137416 11.2305 2.07938 11.2305 4.46331C11.2305 4.79813 11.2706 5.13295 11.3376 5.45438C7.74833 5.26688 4.54743 3.55259 2.41797 0.927595C2.04297 1.57045 1.82868 2.30706 1.82868 3.11063C1.82868 4.61063 2.59208 5.93652 3.75725 6.71331C3.04743 6.68652 2.37779 6.48563 1.8019 6.1642C1.8019 6.17759 1.8019 6.20438 1.8019 6.21777C1.8019 8.32045 3.2885 10.0615 5.27065 10.4633C4.90904 10.5571 4.52065 10.6106 4.13225 10.6106C3.851 10.6106 3.58315 10.5838 3.31529 10.5437C3.8644 12.258 5.45815 13.5035 7.35993 13.5437C5.87333 14.7088 4.01172 15.3919 1.9894 15.3919C1.62779 15.3919 1.29297 15.3785 0.944754 15.3383C2.85993 16.5705 5.13672 17.2803 7.58761 17.2803C15.543 17.2803 19.8956 10.691 19.8956 4.97224C19.8956 4.78474 19.8956 4.59724 19.8823 4.40974C20.726 3.79367 21.4626 3.03027 22.0519 2.17313Z" fill="#FCCA2E"/>
</svg>
