<svg width="82" height="82" viewBox="0 0 82 82" fill="none" xmlns="http://www.w3.org/2000/svg">
<g id="Frame 2">
<path id="Vector" d="M9.00954 5.96985C8.56512 5.96985 8.1389 6.14639 7.82465 6.46065C7.51039 6.7749 7.33385 7.20112 7.33385 7.64554C7.33385 8.08996 7.51039 8.51618 7.82465 8.83043C8.1389 9.14469 8.56512 9.32123 9.00954 9.32123C9.45396 9.32123 9.88018 9.14469 10.1944 8.83043C10.5087 8.51618 10.6852 8.08996 10.6852 7.64554C10.6852 7.20112 10.5087 6.7749 10.1944 6.46065C9.88018 6.14639 9.45396 5.96985 9.00954 5.96985Z" fill="white"/>
<path id="Vector_2" d="M15.7128 5.96985C15.2684 5.96985 14.8421 6.14639 14.5279 6.46065C14.2136 6.7749 14.0371 7.20112 14.0371 7.64554C14.0371 8.08996 14.2136 8.51618 14.5279 8.83043C14.8421 9.14469 15.2684 9.32123 15.7128 9.32123C16.1572 9.32123 16.5834 9.14469 16.8977 8.83043C17.2119 8.51618 17.3885 8.08996 17.3885 7.64554C17.3885 7.20112 17.2119 6.7749 16.8977 6.46065C16.5834 6.14639 16.1572 5.96985 15.7128 5.96985Z" fill="white"/>
<path id="Vector_3" d="M22.4153 5.96985C21.9709 5.96985 21.5447 6.14639 21.2305 6.46065C20.9162 6.7749 20.7397 7.20112 20.7397 7.64554C20.7397 8.08996 20.9162 8.51618 21.2305 8.83043C21.5447 9.14469 21.9709 9.32123 22.4153 9.32123C22.8598 9.32123 23.286 9.14469 23.6002 8.83043C23.9145 8.51618 24.091 8.08996 24.091 7.64554C24.091 7.20112 23.9145 6.7749 23.6002 6.46065C23.286 6.14639 22.8598 5.96985 22.4153 5.96985Z" fill="white"/>
<path id="Vector_4" d="M80.5115 43.5388C80.0072 42.327 79.1524 41.2935 78.0566 40.5709C76.9608 39.8484 75.6742 39.4698 74.3617 39.4836V2.61844C74.3617 2.17402 74.1851 1.7478 73.8709 1.43355C73.5566 1.11929 73.1304 0.942749 72.686 0.942749H2.30698C1.86256 0.942749 1.43634 1.11929 1.12209 1.43355C0.807832 1.7478 0.631287 2.17402 0.631287 2.61844L0.631287 72.9975C0.631287 73.4419 0.807832 73.8681 1.12209 74.1824C1.43634 74.4966 1.86256 74.6732 2.30698 74.6732H39.8592C39.457 76.8851 39.256 78.8121 39.1722 79.5327C39.1487 79.7664 39.1746 80.0024 39.2482 80.2255C39.3218 80.4485 39.4415 80.6536 39.5996 80.8274C39.7576 81.0012 39.9503 81.1399 40.1654 81.2344C40.3805 81.3289 40.613 81.3771 40.8479 81.3759C43.043 81.3759 52.5777 79.8678 55.1583 77.2537C55.8627 76.4976 56.4298 75.6243 56.834 74.6732H72.686C73.1304 74.6732 73.5566 74.4966 73.8709 74.1824C74.1851 73.8681 74.3617 73.4419 74.3617 72.9975V55.6708C78.2996 51.7162 82.7401 48.6329 80.5115 43.5388ZM3.98267 4.29413H71.0103V10.9969H3.98267V4.29413ZM3.98267 71.3218V14.3483H71.0103V40.422C70.5059 40.7034 70.0386 41.0468 69.6195 41.4442C58.4091 52.6546 60.9562 50.3924 60.9562 49.5378C60.9562 49.0934 60.7796 48.6671 60.4654 48.3529C60.1511 48.0386 59.7249 47.8621 59.2805 47.8621H32.4694C32.025 47.8621 31.5988 48.0386 31.2845 48.3529C30.9703 48.6671 30.7937 49.0934 30.7937 49.5378C30.7937 49.9822 30.9703 50.4084 31.2845 50.7227C31.5988 51.0369 32.025 51.2135 32.4694 51.2135C61.5929 51.2135 59.4815 51.314 60.0848 50.9789L56.4988 54.5649H32.4694C32.025 54.5649 31.5988 54.7414 31.2845 55.0557C30.9703 55.3699 30.7937 55.7961 30.7937 56.2406C30.7937 56.685 30.9703 57.1112 31.2845 57.4254C31.5988 57.7397 32.025 57.9162 32.4694 57.9162H53.1474L49.7961 61.2676H32.4694C32.025 61.2676 31.5988 61.4442 31.2845 61.7584C30.9703 62.0727 30.7937 62.4989 30.7937 62.9433C30.7937 63.3877 30.9703 63.814 31.2845 64.1282C31.5988 64.4425 32.025 64.619 32.4694 64.619H44.1992C42.2293 66.3526 40.9354 68.7267 40.5462 71.3218H3.98267ZM42.7582 77.7899C43.3111 73.8353 44.4338 69.0428 45.6739 67.7358C46.6212 66.805 47.8983 66.287 49.2263 66.2947C50.2199 66.2956 51.191 66.5909 52.0169 67.1433C52.8428 67.6958 53.4864 68.4806 53.8666 69.3986C54.2467 70.3166 54.3462 71.3267 54.1526 72.3013C53.959 73.2759 53.4809 74.1712 52.7788 74.8742C51.5053 76.1478 46.7128 77.237 42.7582 77.7899ZM71.0103 71.3218H58.7107L71.0103 59.0222V71.3218ZM76.7244 48.5491L57.0183 68.272C56.6061 67.1924 55.9706 66.2119 55.1534 65.3947C54.3362 64.5775 53.3557 63.942 52.2761 63.5298L71.999 43.8237C72.4745 43.3485 73.0819 43.0273 73.7423 42.9018C74.4027 42.7763 75.0856 42.8523 75.7022 43.1199C76.1997 43.3396 76.6362 43.677 76.9742 44.1031C77.3121 44.5292 77.5413 45.0311 77.6419 45.5656C77.7425 46.1 77.7115 46.6509 77.5517 47.1707C77.3919 47.6905 77.1079 48.1636 76.7244 48.5491Z" fill="white"/>
<path id="Vector_5" d="M7.33385 36.6015C7.45259 36.9522 7.67793 37.2569 7.97837 37.4733C8.27881 37.6896 8.63933 37.8066 9.00954 37.808C70.4404 37.808 67.089 38.3275 67.6587 36.6015C67.776 36.2161 67.6587 19.5765 67.6587 19.1408C67.6106 18.8246 67.473 18.5288 67.2622 18.2883C67.0514 18.0478 66.7761 17.8726 66.469 17.7835C65.8825 17.6997 9.42846 17.6997 9.00954 17.6997C8.66358 17.7161 8.3312 17.8393 8.05813 18.0524C7.78506 18.2654 7.58471 18.5579 7.48466 18.8894C7.33385 19.3754 7.33385 36.2664 7.33385 36.6015ZM64.3073 33.8869L43.4282 27.7539L64.3073 21.6208V33.8869ZM54.3537 34.4566H20.6388L37.4963 29.4295L54.3537 34.4566ZM37.4963 26.0782L20.6388 21.0511H54.3537L37.4963 26.0782ZM31.5643 27.7539L10.6852 33.8869V21.6208L31.5643 27.7539Z" fill="white"/>
<path id="Vector_6" d="M59.2805 41.1593H32.4694C32.025 41.1593 31.5988 41.3358 31.2845 41.6501C30.9703 41.9644 30.7937 42.3906 30.7937 42.835C30.7937 43.2794 30.9703 43.7056 31.2845 44.0199C31.5988 44.3341 32.025 44.5107 32.4694 44.5107H59.2805C59.7249 44.5107 60.1511 44.3341 60.4654 44.0199C60.7796 43.7056 60.9562 43.2794 60.9562 42.835C60.9562 42.3906 60.7796 41.9644 60.4654 41.6501C60.1511 41.3358 59.7249 41.1593 59.2805 41.1593Z" fill="white"/>
<path id="Vector_7" d="M25.7664 41.1593C8.84197 41.1593 7.45115 40.5728 7.33385 42.835C7.33385 43.0361 7.33385 62.9433 7.33385 63.4293C7.44142 63.7855 7.66449 64.0958 7.9679 64.3112C8.2713 64.5266 8.63778 64.6349 9.00954 64.619C27.04 64.619 26.1854 64.8201 26.8892 64.1666C27.5929 63.513 27.4421 64.1666 27.4421 42.835C27.4421 42.3906 27.2656 41.9644 26.9513 41.6501C26.6371 41.3359 26.2109 41.1593 25.7664 41.1593ZM15.2096 52.8892L10.6852 58.3184V47.4599L15.2096 52.8892ZM12.5955 44.5107H22.1805L17.388 50.2751L12.5955 44.5107ZM17.388 55.5032L22.1805 61.2676H12.5955L17.388 55.5032ZM19.5664 52.8892L24.0908 47.4599V58.3184L19.5664 52.8892Z" fill="#FCCA2E"/>
</g>
</svg>
