<svg width="26" height="18" viewBox="0 0 26 18" fill="none" xmlns="http://www.w3.org/2000/svg">
<path d="M10.5223 11.816V5.07938L17.0045 8.46777L10.5223 11.816ZM13 0.271345C7.95089 0.271345 4.60268 0.512416 4.60268 0.512416C4.13393 0.565987 3.10268 0.565987 2.19196 1.53027C2.19196 1.53027 1.45536 2.25349 1.24107 3.9142C0.986607 5.85617 1 7.79813 1 7.79813V9.61956C1 9.61956 0.986607 11.5615 1.24107 13.5035C1.45536 15.1508 2.19196 15.8874 2.19196 15.8874C3.10268 16.8383 4.30804 16.8115 4.84375 16.9053C4.84375 16.9053 6.75893 17.0928 13 17.1463C18.0491 17.1463 21.3973 16.8919 21.3973 16.8919C21.8661 16.8383 22.8973 16.8383 23.808 15.8874C23.808 15.8874 24.5446 15.1508 24.7589 13.5035C25.0134 11.5615 25 9.61956 25 9.61956V7.79813C25 7.79813 25.0134 5.85617 24.7589 3.9142C24.5446 2.25349 23.808 1.53027 23.808 1.53027C22.8973 0.565987 21.8661 0.565987 21.3973 0.512416C21.3973 0.512416 18.0491 0.271345 13 0.271345Z" fill="#FCCA2E"/>
</svg>
